<?xml version="1.0" encoding="utf-8"?>
<svg xmlns="http://www.w3.org/2000/svg" xmlns:svg="http://www.w3.org/2000/svg" version="1.1" viewBox="0 0 1400 340">
	<title>The titlepage for the Standard Ebooks edition of In a Glass Darkly, by J. Sheridan Le Fanu</title>
	<g aria-label="IN A GLASS DARKLY">
		<path d="M 192.79897,52.807016 H 175.20832 V 130 h 17.59065 z"/>
		<path d="m 226.67324,82.093566 h 0.18713 L 257.55043,130 h 17.59064 V 52.807016 h -17.59064 v 47.906434 h -0.18714 L 226.67324,52.807016 H 209.08259 V 130 h 17.59065 z"/>
		<path d="m 361.17471,52.807016 h -16.2807 L 313.73611,130 h 18.90059 l 5.7076,-15.4386 h 29.38012 L 373.43202,130 h 18.90058 z m 0.5614,46.31579 H 344.3326 l 8.60819,-22.45614 h 0.18713 z"/>
		<path d="m 500.63816,86.771929 h -35.64913 v 13.567251 h 17.77778 c 0,9.45029 -8.32748,14.87719 -16.74854,14.87719 -10.8538,0 -19.64912,-10.66666 -19.64912,-23.766078 0,-13.380117 8.79532,-24.140352 19.64912,-24.140352 6.83041,0 12.72515,2.713451 17.21638,9.918129 L 494.74342,64.59649 c -6.73684,-8.140351 -16.18713,-13.192983 -29.75439,-13.192983 -21.7076,0 -37.61403,17.871346 -37.61403,40.046785 0,22.081868 16.8421,39.953218 37.61403,39.953218 15.1579,0 31.4386,-8.32749 35.64913,-27.88304 z"/>
		<path d="M 530.91301,52.807016 H 513.32237 V 130 h 44.16374 v -15.4386 h -26.5731 z"/>
		<path d="m 611.80335,52.807016 h -16.2807 L 564.36476,130 h 18.90058 l 5.7076,-15.4386 h 29.38012 L 624.06066,130 h 18.90059 z m 0.56141,46.31579 h -17.40351 l 8.60819,-22.45614 h 0.18713 z"/>
		<path d="m 677.4978,51.403507 c -12.44444,0 -25.16959,9.169591 -25.16959,23.578948 0,8.046784 5.4269,15.251462 14.69006,19.836258 9.16959,4.584795 17.40351,7.111107 17.40351,12.725147 0,7.20468 -7.29825,7.57895 -11.1345,7.57895 -8.60819,0 -18.90059,-8.70176 -18.90059,-8.70176 l -8.79532,14.78363 c 0,0 10.94737,10.19883 29.00585,10.19883 15.06432,0 29.09941,-6.45614 29.09941,-24.88889 0,-10.105264 -9.45029,-17.40351 -18.05848,-21.052632 -8.79532,-3.742691 -16.09357,-6.83041 -16.09357,-11.134504 0,-4.210526 3.18129,-6.923976 9.1696,-6.923976 7.95321,0 15.62573,5.333333 15.62573,5.333333 l 7.11111,-14.035088 c 0,0 -9.91813,-7.298246 -23.95322,-7.298246 z"/>
		<path d="m 743.53583,51.403507 c -12.44445,0 -25.16959,9.169591 -25.16959,23.578948 0,8.046784 5.4269,15.251462 14.69005,19.836258 9.16959,4.584795 17.40351,7.111107 17.40351,12.725147 0,7.20468 -7.29824,7.57895 -11.1345,7.57895 -8.60819,0 -18.90059,-8.70176 -18.90059,-8.70176 l -8.79532,14.78363 c 0,0 10.94737,10.19883 29.00585,10.19883 15.06433,0 29.09942,-6.45614 29.09942,-24.88889 0,-10.105264 -9.4503,-17.40351 -18.05848,-21.052632 -8.79532,-3.742691 -16.09357,-6.83041 -16.09357,-11.134504 0,-4.210526 3.18129,-6.923976 9.16959,-6.923976 7.95322,0 15.62573,5.333333 15.62573,5.333333 l 7.11111,-14.035088 c 0,0 -9.91813,-7.298246 -23.95321,-7.298246 z"/>
		<path d="M 813.5417,52.807016 V 130 h 22.36257 c 21.23977,0 38.92398,-16.09357 38.92398,-38.643276 0,-22.45614 -17.77778,-38.549708 -38.92398,-38.549708 z M 831.13234,114.2807 V 68.526315 h 2.71345 c 13.09942,0 21.98831,10.011696 21.98831,22.923977 -0.0936,12.912278 -8.98246,22.830408 -21.98831,22.830408 z"/>
		<path d="M 926.8253,52.807016 H 910.54459 L 879.3867,130 h 18.90058 l 5.70761,-15.4386 H 933.375 L 939.08261,130 h 18.90058 z m 0.5614,46.31579 h -17.40351 l 8.60819,-22.45614 h 0.18713 z"/>
		<path d="M 965.90278,52.807016 V 130 h 17.59065 V 99.497075 L 1007.0724,130 h 22.3625 l -26.5731,-31.906433 c 9.4503,-2.994152 15.8129,-10.760234 15.8129,-22.362574 0,-15.157895 -10.8538,-22.923977 -25.16958,-22.923977 z m 17.59065,34.245615 V 66.842104 h 2.05848 c 6.64327,0 14.59649,0.467836 14.59649,10.105263 0,9.637428 -7.95322,10.105264 -14.59649,10.105264 z"/>
		<path d="m 1108.2405,130 -35.9298,-40.608188 31.0643,-36.584796 h -21.3333 L 1055.5622,84.33918 V 52.807016 h -17.5907 V 130 h 17.5907 V 97.251461 L 1084.0066,130 Z"/>
		<path d="m 1134.2098,52.807016 h -17.5906 V 130 h 44.1637 v -15.4386 h -26.5731 z"/>
		<path d="m 1158.7025,52.807016 28.4444,42.5731 V 130 h 17.5907 V 95.380116 l 28.4444,-42.5731 h -21.1462 l -16.0935,24.701755 -16.0936,-24.701755 z"/>
	</g>
	<g aria-label="J. SHERIDAN LE FANU">
		<path d="m 297.20505,232.10526 h -13.19299 v 38.17544 c 0,5.82456 -2.87719,8.14035 -6.66666,8.14035 -3.36842,0 -7.50877,-3.92982 -7.50877,-3.92982 l -4.21053,11.01754 c 0,0 5.26316,5.54386 13.54386,5.54386 11.57895,0 18.03509,-6.03509 18.03509,-17.40351 z"/>
		<path d="m 317.9068,274.98246 c -4.42105,0 -8,3.57894 -8,8.07017 0,4.42105 3.57895,8 8,8 4.49123,0 8.07018,-3.57895 8.07018,-8 0,-4.49123 -3.57895,-8.07017 -8.07018,-8.07017 z"/>
		<path d="m 383.59211,231.05263 c -9.33333,0 -18.87719,6.8772 -18.87719,17.68421 0,6.03509 4.07017,11.4386 11.01754,14.8772 6.87719,3.43859 13.05263,5.33333 13.05263,9.54385 0,5.40351 -5.47368,5.68422 -8.35087,5.68422 -6.45615,0 -14.17544,-6.52632 -14.17544,-6.52632 l -6.59649,11.08772 c 0,0 8.21052,7.64912 21.75438,7.64912 11.29825,0 21.82456,-4.8421 21.82456,-18.66666 0,-7.57895 -7.08772,-13.05264 -13.54386,-15.78948 -6.59649,-2.80702 -12.07017,-5.12281 -12.07017,-8.35088 0,-3.15789 2.38596,-5.19298 6.87719,-5.19298 5.96491,0 11.7193,4 11.7193,4 l 5.33333,-10.52631 c 0,0 -7.43859,-5.47369 -17.96491,-5.47369 z"/>
		<path d="m 427.60088,266.77193 h 18.66666 V 290 h 13.19298 v -57.89474 h -13.19298 v 23.08772 H 427.60088 V 232.10526 H 414.40789 V 290 h 13.19299 z"/>
		<path d="M 505.98465,232.10526 H 472.86184 V 290 h 33.12281 v -11.57895 h -19.92983 v -11.64912 h 19.08772 v -11.57895 h -19.08772 v -11.50877 h 19.92983 z"/>
		<path d="M 518.56909,232.10526 V 290 h 13.19298 V 267.12281 L 549.44628,290 h 16.77193 l -19.92982,-23.92982 c 7.08771,-2.24562 11.85964,-8.07018 11.85964,-16.77193 0,-11.36842 -8.14035,-17.19299 -18.87719,-17.19299 z m 13.19298,25.68421 v -15.15789 h 1.54386 c 4.98246,0 10.94737,0.35088 10.94737,7.57895 0,7.22807 -5.96491,7.57894 -10.94737,7.57894 z"/>
		<path d="M 587.0636,232.10526 H 573.87062 V 290 h 13.19298 z"/>
		<path d="M 600.52632,232.10526 V 290 h 16.77193 c 15.92982,0 29.19298,-12.07018 29.19298,-28.98246 0,-16.8421 -13.33333,-28.91228 -29.19298,-28.91228 z m 13.19298,46.10527 v -34.31579 h 2.03509 c 9.82456,0 16.49122,7.50877 16.49122,17.19298 -0.0702,9.68421 -6.73684,17.12281 -16.49122,17.12281 z"/>
		<path d="M 686.73903,232.10526 H 674.5285 L 651.16008,290 h 14.17544 l 4.2807,-11.57895 h 22.03509 L 695.93201,290 h 14.17544 z m 0.42105,34.73685 H 674.10745 L 680.56359,250 h 0.14035 z"/>
		<path d="m 730.49014,254.07018 h 0.14035 L 753.64804,290 h 13.19298 v -57.89474 h -13.19298 v 35.92983 h -0.14035 L 730.49014,232.10526 H 717.29716 V 290 h 13.19298 z"/>
		<path d="M 817.65573,232.10526 H 804.46275 V 290 h 33.12281 v -11.57895 h -19.92983 z"/>
		<path d="m 882.19627,232.10526 h -33.1228 V 290 h 33.1228 v -11.57895 h -19.92982 v -11.64912 h 19.08772 v -11.57895 h -19.08772 v -11.50877 h 19.92982 z"/>
		<path d="M 952.44296,232.10526 H 918.96928 V 290 h 13.19298 v -23.22807 h 18.73684 v -11.57895 h -18.73684 v -11.50877 h 20.2807 z"/>
		<path d="M 990.65349,232.10526 H 978.44296 L 955.07454,290 h 14.17544 l 4.2807,-11.57895 h 22.03509 L 999.84647,290 h 14.17543 z m 0.42105,34.73685 H 978.02191 L 984.47805,250 h 0.14035 z"/>
		<path d="m 1034.4046,254.07018 h 0.1404 L 1057.5625,290 h 13.193 v -57.89474 h -13.193 v 35.92983 h -0.1403 l -23.0176,-35.92983 h -13.1929 V 290 h 13.1929 z"/>
		<path d="m 1128.6798,232.10526 h -13.193 v 33.47369 c 0,9.68421 -2.9473,12.49123 -9.4035,12.49123 -6.4561,0 -9.4035,-2.80702 -9.4035,-12.49123 v -33.47369 h -13.193 v 37.33334 c 0,14.31579 7.8597,21.61403 22.5965,21.61403 14.7369,0 22.5965,-7.29824 22.5965,-21.61403 z"/>
	</g>
</svg>
